# xmcd
#
# Track frame offsets:
#	150
#	15746
#	33647
#	49010
#	62535
#	80528
#	91718
#	103316
#	118238
#	135610
#	148798
#	159475
#	179570
#	195124
#	216021
#	232496
#	248850
#	267027
#	282532
#	300690
#	319000
#	335662
#
# Disc length: 4686 seconds
#
# Revision: 2
# Processed by: cddbd v1.5.2PL0 Copyright (c) Steve Scherf et al.
# Submitted via: EasyCDDAExtractor 16.0.1.1
#
DISCID=47124c16
DTITLE=Adam Brand - Adam Brand_Special Bonus Edition
DYEAR=2004
DGENRE=Country
TTITLE0=Uncle Pete
TTITLE1=Never Live Without You
TTITLE2=Grandpa's Piano
TTITLE3=My Mind's Made Up
TTITLE4=Came From The Heart
TTITLE5=Feelin' Single Seein' Double
TTITLE6=Losing Streak
TTITLE7=Last Man Standing
TTITLE8=Size Two Boots
TTITLE9=Dirt Track Cowboys
TTITLE10=My Mama Told Me
TTITLE11=Here And There
TTITLE12=King Of The Road
TTITLE13=Words Cannot Say
TTITLE14=Love Away The Night
TTITLE15=Gospel Medley
TTITLE16=Uncle Pete
TTITLE17=Charleville
TTITLE18=Never Live Without You
TTITLE19=Size Two Boots
TTITLE20=T Bird
TTITLE21=Trouble
EXTD=YEAR: 2004
EXTT0=
EXTT1=
EXTT2=
EXTT3=
EXTT4=
EXTT5=
EXTT6=
EXTT7=
EXTT8=
EXTT9=
EXTT10=
EXTT11=
EXTT12=
EXTT13=
EXTT14=
EXTT15=
EXTT16=
EXTT17=
EXTT18=
EXTT19=
EXTT20=
EXTT21=
PLAYORDER=
